<?xml version="1.0" ?><svg enable-background="new 0 0 512 512" id="Layer_1" version="1.1" viewBox="0 0 512 512" xml:space="preserve" xmlns="http://www.w3.org/2000/svg" xmlns:xlink="http://www.w3.org/1999/xlink"><g><g><linearGradient gradientUnits="userSpaceOnUse" id="SVGID_1_" x1="0.0000038" x2="512" y1="256" y2="256"><stop offset="0" style="stop-color:#F67950"/><stop offset="1" style="stop-color:#F15A29"/></linearGradient><circle cx="256" cy="256" fill="url(#SVGID_1_)" r="256"/><linearGradient gradientUnits="userSpaceOnUse" id="SVGID_2_" x1="42.6666679" x2="469.3333435" y1="256.0005188" y2="256.0005188"><stop offset="0" style="stop-color:#F15A29"/><stop offset="1" style="stop-color:#F67950"/></linearGradient><path d="M256,469.3338623c-117.6314697,0-213.3333282-95.7018738-213.3333282-213.3333435    c0-117.6309204,95.7018585-213.333313,213.3333282-213.333313c117.6357422,0,213.3333435,95.7024002,213.3333435,213.333313    C469.3333435,373.6319885,373.6357422,469.3338623,256,469.3338623z" fill="url(#SVGID_2_)"/></g><g><polygon opacity="0.3" points="302.3935852,144 302.3935852,154 366.9295959,154 288.540802,232.3887939 295.6112061,239.459198     374,161.0704041 374,225.6090698 384,225.6090698 384,144   "/><polygon opacity="0.3" points="225.6112061,154 225.6112061,144 144,144 144,225.6090698 154,225.6090698 154,161.0704041     232.3888855,239.459198 239.4586639,232.3887939 161.0704041,154   "/><polygon opacity="0.3" points="374,366.9295959 295.6112061,288.5413208 288.540802,295.6117249 366.9295959,374 302.3935852,374     302.3935852,384 384,384 384,302.3909302 374,302.3909302   "/><polygon opacity="0.3" points="232.3888855,288.5413208 154,366.9295959 154,302.3909302 144,302.3909302 144,384     225.6112061,384 225.6112061,374 161.0704041,374 239.4586639,295.6117249   "/></g><g><polygon fill="#FFFFFF" points="294.3935852,136 294.3935852,146 358.9295959,146 280.540802,224.3887939 287.6112061,231.459198     366,153.0704041 366,217.6090698 376,217.6090698 376,136   "/><polygon fill="#FFFFFF" points="217.6112061,146 217.6112061,136 136,136 136,217.6090698 146,217.6090698 146,153.0704041     224.3888855,231.459198 231.4586639,224.3887939 153.0704041,146   "/><polygon fill="#FFFFFF" points="366,358.9295959 287.6112061,280.5413208 280.540802,287.6117249 358.9295959,366     294.3935852,366 294.3935852,376 376,376 376,294.3909302 366,294.3909302   "/><polygon fill="#FFFFFF" points="224.3888855,280.5413208 146,358.9295959 146,294.3909302 136,294.3909302 136,376     217.6112061,376 217.6112061,366 153.0704041,366 231.4586639,287.6117249   "/></g></g></svg>